<?xml version="1.0" encoding="UTF-8" standalone="no"?> <!-- Created with Vectornator for iOS (http://vectornator.io/) --><!DOCTYPE svg PUBLIC "-//W3C//DTD SVG 1.1//EN" "http://www.w3.org/Graphics/SVG/1.1/DTD/svg11.dtd">
<svg style="fill-rule:evenodd;clip-rule:evenodd;stroke-linecap:round;stroke-linejoin:round;"
     xmlns:vectornator="http://vectornator.io"
     xmlns="http://www.w3.org/2000/svg" xml:space="preserve" version="1.1" viewBox="0 0 2048 2048">
<metadata>
<vectornator:setting key="DisplayWhiteBackground" value="0"/>
<vectornator:setting key="RulersVisible" value="1"/>
<vectornator:setting key="SnapToEdges" value="0"/>
<vectornator:setting key="Units" value="Pixels"/>
<vectornator:setting key="DynamicGuides" value="0"/>
<vectornator:setting key="SnapToPoints" value="0"/>
<vectornator:setting key="CMYKEnabledKey" value="0"/>
<vectornator:setting key="SnapToGrid" value="0"/>
<vectornator:setting key="ShowGrid" value="0"/>
<vectornator:setting key="GridSpacing" value="36"/>
</metadata>
<defs/>
<g id="Layer 1" vectornator:layerName="Layer 1">
<path d="M-2.24122+1033.79C-2.24122+470.176+454.927+13.2741+1018.87+13.2741C1582.82+13.2741+2039.99+470.176+2039.99+1033.79C2039.99+1597.41+1582.82+2054.31+1018.87+2054.31C454.927+2054.31-2.24122+1597.41-2.24122+1033.79Z" opacity="1" fill="#c34b3d"/>
<path d="M702.093+1520.08C702.093+1484.59+847.956+1455.81+1027.89+1455.81C1207.82+1455.81+1353.68+1484.59+1353.68+1520.08C1353.68+1555.58+1207.82+1584.35+1027.89+1584.35C847.956+1584.35+702.093+1555.58+702.093+1520.08Z" opacity="1" fill="#e1dad9"/>
<path d="M973.651+881.236L1079.34+881.236L1079.34+1521.23L973.651+1521.23L973.651+881.236Z" opacity="1" fill="#e1dad9"/>
<path d="M1026.48+921.081L606.546+613.081L1026.48+305.081L1446.42+613.081L1026.48+921.081Z" opacity="1" fill="#e1dad9"/>
<path d="M587.138+580.225C593.44+565.45+633.671+568.453+676.998+586.932C720.325+605.411+750.341+632.368+744.04+647.142C737.738+661.916+697.507+658.913+654.18+640.435C610.853+621.956+580.837+594.999+587.138+580.225Z" opacity="1" fill="#e1dad9"/>
<path d="M1468.1+582.692C1473.04+597.975+1440.72+622.115+1395.9+636.612C1351.08+651.109+1310.74+650.472+1305.8+635.189C1300.86+619.907+1333.18+595.766+1378+581.27C1422.82+566.773+1463.15+567.41+1468.1+582.692Z" opacity="1" fill="#e1dad9"/>
<path d="M565.491+282.212L1488.1+282.212L1488.1+578.922L565.491+578.922L565.491+282.212Z" opacity="1" fill="#c54b3c"/>
</g>
<g id="Drink" vectornator:layerName="Drink">
<path d="M633.472+644.273L1414.31+644.273L1414.31+723.5L633.472+723.5L633.472+644.273Z" opacity="1" fill="#e97016"/>
<path d="M632.812+710.028L1413.65+710.028L1413.65+784.208L632.812+784.208L632.812+710.028Z" opacity="1" fill="#e9c616"/>
<path d="M634.132+779.667L1414.97+779.667L1414.97+856.794L634.132+856.794L634.132+779.667Z" opacity="1" fill="#16c0e9"/>
<path d="M1116.2+856.319L1450.78+609.172L1595.54+787.227L1260.96+1034.37L1116.2+856.319Z" opacity="1" fill="#c34b3d"/>
<path d="M843.817+1072.18L508.336+826.252L635.276+635.085L970.756+881.01L843.817+1072.18Z" opacity="1" fill="#c34b3d"/>
<path d="M325.295+976.719C325.295+903.637+385.131+844.392+458.942+844.392C532.753+844.392+592.589+903.637+592.589+976.719C592.589+1049.8+532.753+1109.05+458.942+1109.05C385.131+1109.05+325.295+1049.8+325.295+976.719Z" opacity="1" fill="#363530"/>
<path d="M1491.27+1002.02C1491.27+928.942+1551.1+869.697+1624.91+869.697C1698.72+869.697+1758.56+928.942+1758.56+1002.02C1758.56+1075.11+1698.72+1134.35+1624.91+1134.35C1551.1+1134.35+1491.27+1075.11+1491.27+1002.02Z" opacity="1" fill="#363530"/>
<path d="M265.376+1212.27C265.376+1132.8+317.449+1068.37+381.685+1068.37C445.921+1068.37+497.995+1132.8+497.995+1212.27C497.995+1291.74+445.921+1356.16+381.685+1356.16C317.449+1356.16+265.376+1291.74+265.376+1212.27Z" opacity="1" fill="#363530"/>
<path d="M1431.35+1237.57C1431.35+1158.1+1483.42+1093.68+1547.66+1093.68C1611.89+1093.68+1663.96+1158.1+1663.96+1237.57C1663.96+1317.04+1611.89+1381.47+1547.66+1381.47C1483.42+1381.47+1431.35+1317.04+1431.35+1237.57Z" opacity="1" fill="#363530"/>
<path d="M522.537+1064.72C457.955+1064.72+405.579+1129.49+405.579+1209.37C405.579+1287.74+456.036+1351.4+518.94+1353.77C518.97+1353.77+519.143+1353.77+519.145+1353.77C520.261+1353.68+521.707+1353.81+523.256+1353.96C587.504+1353.48+639.495+1288.94+639.495+1209.37C639.495+1129.49+587.119+1064.72+522.537+1064.72Z" opacity="1" fill="#363530"/>
<path d="M1688.51+1090.03C1623.93+1090.03+1571.55+1154.8+1571.55+1234.67C1571.55+1313.05+1622.01+1376.71+1684.91+1379.07C1684.94+1379.07+1685.11+1379.07+1685.12+1379.07C1686.23+1378.99+1687.68+1379.12+1689.23+1379.27C1753.47+1378.78+1805.46+1314.25+1805.46+1234.67C1805.46+1154.8+1753.09+1090.03+1688.51+1090.03Z" opacity="1" fill="#363530"/>
<path d="M269.351+1172.89L269.351+1359.81L367.039+1359.81C367.223+1359.78+367.254+1359.74+367.45+1359.71C367.724+1359.68+367.744+1359.7+368.015+1359.66C369.893+1359.44+370.683+1359.3+371.509+1359.08C372.248+1358.89+372.835+1358.73+374.336+1358.26C375.898+1357.77+376.673+1357.53+377.624+1357.3C378.33+1357.12+378.98+1356.96+379.629+1356.86C379.881+1356.82+381.797+1356.56+382.403+1356.47C383.463+1356.33+384.363+1356.27+385.281+1356.23L385.281+1172.89L269.351+1172.89Z" opacity="1" fill="#363530"/>
<path d="M1435.32+1198.2L1435.32+1385.11L1533.01+1385.11C1533.19+1385.09+1533.22+1385.04+1533.42+1385.02C1533.69+1384.98+1533.71+1385+1533.98+1384.97C1535.86+1384.74+1536.65+1384.61+1537.48+1384.39C1538.22+1384.19+1538.81+1384.04+1540.31+1383.57C1541.87+1383.07+1542.64+1382.84+1543.59+1382.6C1544.3+1382.43+1544.95+1382.27+1545.6+1382.17C1545.85+1382.13+1547.77+1381.86+1548.37+1381.78C1549.43+1381.63+1550.33+1381.57+1551.25+1381.54L1551.25+1198.2L1435.32+1198.2Z" opacity="1" fill="#363530"/>
<path d="M518.889+1169.75L518.889+1353.77C518.934+1353.77+519.143+1353.77+519.145+1353.77C520.54+1353.66+522.149+1353.76+524.284+1354.01C524.817+1354.07+528.447+1354.55+528.806+1354.59C531.049+1354.84+532.804+1355.14+536.617+1355.89C537.341+1356.04+537.63+1356.06+538.005+1356.14C544.057+1357.32+547.5+1357.65+551.314+1357.1C552.028+1357+552.691+1357.24+553.215+1357.63L635.487+1357.63L635.487+1169.75L518.889+1169.75Z" opacity="1" fill="#363530"/>
<path d="M1684.86+1195.06L1684.86+1379.07C1684.9+1379.07+1685.11+1379.07+1685.12+1379.07C1686.51+1378.96+1688.12+1379.07+1690.25+1379.32C1690.79+1379.38+1694.42+1379.86+1694.78+1379.9C1697.02+1380.14+1698.77+1380.44+1702.59+1381.2C1703.31+1381.34+1703.6+1381.37+1703.97+1381.44C1710.03+1382.62+1713.47+1382.96+1717.28+1382.41C1718+1382.3+1718.66+1382.55+1719.19+1382.94L1801.46+1382.94L1801.46+1195.06L1684.86+1195.06Z" opacity="1" fill="#363530"/>
</g>
</svg>
